# xmcd
#
# Track frame offsets:
#	150
#	17457
#	39450
#	60430
#	80570
#	99425
#	119275
#	135275
#	151075
#	176550
#	193957
#	212767
#
# Disc length: 3139 seconds
#
# Revision: 1
# Processed by: cddbd v1.5.1PL0 Copyright (c) Steve Scherf et al.
# Submitted via: CDex 1.50Beta5
#
DISCID=920c410c
DTITLE=TERUMASA HINO - N.Y. SPIRITS
DYEAR=1900
DGENRE=
TTITLE0=オーティス
TTITLE1=シンク・アバウト・イット
TTITLE2=ボーン・スゥイング
TTITLE3=イエロー・ジャケット
TTITLE4=フリーランド
TTITLE5=サンフィールド
TTITLE6=ピラミッド
TTITLE7=ヨーク・タイムス
TTITLE8=イゴーズ・ハイダウェイ
TTITLE9=T・ファンク
TTITLE10=アボリジナル
TTITLE11=モーニング・アフター
EXTD=
EXTT0=
EXTT1=
EXTT2=
EXTT3=
EXTT4=
EXTT5=
EXTT6=
EXTT7=
EXTT8=
EXTT9=
EXTT10=
EXTT11=
PLAYORDER=
